<?xml version="1.0" standalone="no"?>
<!DOCTYPE svg PUBLIC "-//W3C//DTD SVG 20010904//EN"
 "http://www.w3.org/TR/2001/REC-SVG-20010904/DTD/svg10.dtd">
<svg version="1.0" xmlns="http://www.w3.org/2000/svg"
 width="550.000000pt" height="550.000000pt" viewBox="0 0 550.000000 550.000000"
 preserveAspectRatio="xMidYMid meet">
<metadata>
Created by potrace 1.14, written by Peter Selinger 2001-2017
</metadata>
<g transform="translate(0.000000,550.000000) scale(0.100000,-0.100000)"
fill="#000000" stroke="none">
<path d="M1488 4838 c-126 -169 -115 -154 -231 -328 -276 -413 -476 -805 -585
-1150 -34 -108 -87 -322 -96 -390 -4 -25 -10 -70 -14 -100 -10 -75 -9 -361 1
-435 24 -171 69 -320 143 -470 30 -60 61 -117 69 -126 8 -8 15 -19 15 -23 0
-13 127 -172 193 -242 91 -98 287 -251 417 -326 194 -112 401 -203 596 -263
l41 -12 -14 56 c-13 57 -69 332 -78 386 -3 17 -7 39 -9 50 -2 11 -7 40 -10 65
-3 25 -8 56 -11 70 -2 14 -11 75 -20 135 -24 171 -29 212 -40 310 -3 33 -8 75
-11 94 -2 18 -6 59 -9 90 -3 31 -7 74 -10 96 -3 22 -7 72 -11 110 -3 39 -7 90
-9 115 -24 271 -39 632 -39 940 1 305 5 400 15 400 5 0 9 -12 9 -27 0 -16 25
-149 56 -298 59 -290 58 -287 74 -356 6 -26 13 -53 14 -60 2 -8 6 -25 9 -39 4
-14 27 -106 51 -205 88 -356 172 -644 281 -965 60 -177 163 -450 174 -462 3
-4 6 39 7 95 0 95 8 205 18 252 60 281 143 443 320 621 95 94 156 143 266 210
66 39 234 120 303 145 44 16 45 21 16 139 -11 47 -22 92 -24 100 -20 92 -126
331 -208 468 -139 238 -288 424 -537 673 -138 138 -187 184 -296 279 -194 169
-635 502 -697 526 -12 4 -44 -32 -129 -148z"/>
<path d="M4647 2714 c-1 -1 -74 -4 -162 -8 -88 -4 -173 -9 -189 -11 -16 -2
-57 -6 -90 -9 -34 -4 -71 -8 -81 -10 -11 -2 -42 -7 -70 -10 -318 -45 -633
-155 -850 -297 -85 -56 -251 -215 -301 -289 -93 -137 -155 -296 -181 -465 -15
-96 -6 -455 12 -485 2 -3 6 -23 9 -45 8 -51 21 -99 53 -208 l26 -88 138 139
c143 144 320 305 448 406 185 148 499 359 631 426 41 21 36 14 -60 -81 -294
-291 -522 -593 -739 -979 -79 -141 -80 -145 -58 -153 20 -8 86 -24 177 -43 19
-4 139 -9 266 -10 219 -3 237 -2 325 21 218 58 377 151 524 307 59 62 77 86
134 171 89 134 200 402 236 573 2 10 11 53 20 94 9 41 18 91 21 110 3 19 9 60
14 90 5 30 12 84 15 120 3 35 8 78 10 95 13 92 23 620 13 631 -4 3 -287 11
-291 8z"/>
</g>
</svg>
