<?xml version="1.0" encoding="UTF-8"?>
<svg xmlns="http://www.w3.org/2000/svg" xmlns:xlink="http://www.w3.org/1999/xlink" width="550px" height="550px" viewBox="0 0 550 550" version="1.1">
<defs>
<clipPath id="clip1">
  <path d="M 54.984375 51.390625 L 341 51.390625 L 341 453 L 54.984375 453 Z M 54.984375 51.390625 "/>
</clipPath>
<clipPath id="clip2">
  <path d="M 270 278 L 494.234375 278 L 494.234375 500.882812 L 270 500.882812 Z M 270 278 "/>
</clipPath>
</defs>
<g id="surface1">
<g clip-path="url(#clip1)" clip-rule="nonzero">
<path style=" stroke:none;fill-rule:evenodd;fill:rgb(8.627451%,39.607843%,20.392157%);fill-opacity:1;" d="M 203.675781 452.785156 C 133.925781 432.117188 -67.261719 343.792969 160.738281 50.253906 C 284.03125 133.925781 331.539062 207.546875 340.335938 268.378906 C 281.359375 289.5 240.761719 330.5625 245.820312 404.851562 C 213.699219 328.460938 188.5 222.808594 177.6875 156.9375 C 172.269531 233.886719 183.621094 370.753906 203.675781 452.785156 Z M 203.675781 452.785156 "/>
</g>
<g clip-path="url(#clip2)" clip-rule="nonzero">
<path style=" stroke:none;fill-rule:evenodd;fill:rgb(8.627451%,39.607843%,20.392157%);fill-opacity:1;" d="M 282.613281 471.226562 C 265.636719 424.035156 230.367188 270.617188 493.894531 279.074219 C 501.628906 520.082031 373.976562 511.1875 316.007812 494.917969 C 340.003906 448.207031 370.898438 406.046875 409.988281 370.453125 C 362.03125 397.003906 319.328125 430.683594 282.613281 471.226562 Z M 282.613281 471.226562 "/>
</g>
</g>
</svg>
